<svg xmlns="http://www.w3.org/2000/svg" viewBox="0 0 32 32">
  <defs>
    <linearGradient id="g" x1="0" y1="0" x2="1" y2="1">
      <stop offset="0%" stop-color="#4ade80"/>
      <stop offset="100%" stop-color="#16a34a"/>
    </linearGradient>
  </defs>
  <rect width="32" height="32" rx="8" fill="url(#g)"/>
  <path d="M22 8c-5.5 0-10 4.5-10 10 0 1.4.3 2.7.8 3.9C9 21.4 7 18.4 7 15c0-1.6.4-3.1 1.1-4.4C9.6 9.5 11.7 9 14 9c2.4 0 4.5.8 6 2.1C20.6 9.5 21.3 8.5 22 8z" fill="#fff" opacity="0.95"/>
  <path d="M22 8c-1.5 4-4.5 7-8.5 8 .8.6 1.7 1 2.7 1.3 3.5-.7 6.4-3.2 7.5-6.5C23.3 9.7 22.7 8.7 22 8z" fill="#fff" opacity="0.6"/>
</svg>
